<svg width="15" height="15" xmlns="http://www.w3.org/2000/svg">
  <path fill="#000000" id="svg_1" d="m13.77511,3.9994l-1.6387,0l0,-2.6386c-0.00006,-0.19932 -0.16168,-0.36086 -0.361,-0.3608l0,0l-0.278,0c-0.19932,0 -0.3609,0.16158 -0.3609,0.3609l0,0l0,2.6385l-1.6382,0c-0.19932,0 -0.3609,0.16158 -0.3609,0.3609l0,0l0,0l0,5.6381l-3.637,0c-0.20042,0 -0.3629,0.16248 -0.3629,0.3629l0,3.2745c0.00055,0.20003 0.16287,0.3619 0.3629,0.3619l8.2747,0c0.19932,0 0.3609,-0.16158 0.3609,-0.3609l0,0l0,-9.2768c0,-0.19932 -0.16158,-0.3609 -0.3609,-0.3609l0,0l0,0.0003zm-6.6379,7.9987l-1,0l0,-1l1,0l0,1zm2,0l-1,0l0,-1l1,0l0,1zm2,0l-1,0l0,-1l1,0l0,1zm0,-2l-1,0l0,-1l1,0l0,1zm0,-2l-1,0l0,-1l1,0l0,1zm0,-2l-1,0l0,-1l1,0l0,1zm2,5.999l-1,0l0,-1l1,0l0,1zm0,-2l-1,0l0,-1l1,0l0,1zm0,-2l-1,0l0,-1l1,0l0,1zm0,-2l-1,0l0,-1l1,0l0,1zm-5.0002,-4.6363c-0.00006,-0.19928 -0.16162,-0.3608 -0.3609,-0.3608l-2.2778,0c-0.19932,0 -0.3609,0.16158 -0.3609,0.3609l0,0l0,1.6391l-1.6391,0c-0.19862,0.00049 -0.35951,0.16138 -0.36,0.36l0,0l0,0.6394l-1.6392,0c-0.19916,0.00005 -0.36063,0.16144 -0.3608,0.3606l0,0l0,9.2765c0,0.19932 0.16158,0.3609 0.3609,0.3609l2.6385,0l0,-4.9988l3.9993,0l0,-7.6378zm-4.9987,10.6373l-1,0l0,-1l1,0l0,1zm0,-2l-1,0l0,-1l1,0l0,1zm0,-2l-1,0l0,-1l1,0l0,1zm0,-2l-1,0l0,-1l1,0l0,1zm2,2l-1,0l0,-1l1,0l0,1zm0,-2l-1,0l0,-1l1,0l0,1zm2,2l-1,0l0,-1l1,0l0,1zm0,-2l-1,0l0,-1l1,0l0,1zm0,-2l-1,0c0,-0.3327 0,-0.6654 0,-0.9981l1,0l0,1l0,-0.0019z"/>
</svg>